<?xml version="1.0" encoding="UTF-8" ?>
<!DOCTYPE svg PUBLIC "-//W3C//DTD SVG 1.1//EN" "http://www.w3.org/Graphics/SVG/1.1/DTD/svg11.dtd">
<svg width="3840pt" height="3840pt" viewBox="0 0 3840 3840" version="1.1" xmlns="http://www.w3.org/2000/svg">
<g id="#61bc26ff">
<path fill="#61bc26" opacity="1.00" d=" M 2453.17 383.71 C 2455.71 385.08 2457.21 387.74 2459.16 389.82 C 2476.81 410.78 2492.39 433.35 2508.30 455.63 C 2624.41 621.72 2725.42 798.31 2810.65 982.16 C 2825.16 1013.81 2839.85 1045.39 2853.58 1077.39 C 2875.39 1128.10 2895.56 1179.54 2913.59 1231.72 C 2907.07 1248.63 2904.77 1266.79 2902.57 1284.68 C 2898.21 1330.02 2891.34 1375.08 2884.00 1420.02 C 2855.54 1589.88 2810.27 1756.93 2748.96 1917.88 C 2695.52 2058.51 2629.66 2194.37 2552.64 2323.60 C 2313.38 2726.21 1964.55 3062.93 1553.57 3287.55 C 1483.03 3327.52 1409.43 3361.77 1335.16 3394.14 C 1313.84 3403.55 1292.29 3412.42 1271.00 3421.86 C 1274.76 3424.82 1278.67 3427.61 1282.61 3430.35 C 1277.43 3429.87 1272.28 3429.10 1267.12 3428.51 C 1276.16 3241.99 1300.74 3056.02 1344.24 2874.35 C 1381.06 2721.27 1432.05 2571.31 1500.32 2429.33 C 1542.21 2342.23 1590.65 2258.22 1646.05 2179.00 C 1655.38 2165.76 1664.59 2152.42 1674.92 2139.93 C 1698.46 2110.15 1720.91 2079.46 1745.76 2050.74 C 1754.79 2040.14 1764.54 2030.20 1773.79 2019.80 C 1823.33 1965.29 1876.63 1914.11 1934.05 1867.94 C 1998.96 1815.70 2069.27 1769.93 2144.40 1733.77 C 2068.78 1752.04 1995.06 1778.00 1924.35 1810.41 C 1841.18 1848.70 1761.83 1895.53 1688.81 1950.82 C 1550.12 2055.73 1433.06 2188.32 1342.69 2336.70 C 1325.76 2364.91 1308.81 2393.12 1293.01 2421.99 C 1259.25 2483.34 1229.13 2546.66 1202.33 2611.35 C 1175.22 2676.48 1152.05 2743.18 1130.65 2810.39 C 1078.78 2975.41 1046.84 3146.04 1024.69 3317.39 C 943.52 3182.20 873.47 3039.49 826.20 2888.77 C 797.98 2798.73 778.14 2705.90 769.55 2611.88 C 758.75 2495.86 766.74 2377.86 795.59 2264.87 C 828.84 2133.47 892.46 2010.58 976.35 1904.43 C 1035.84 1829.05 1105.56 1761.84 1182.56 1704.51 C 1260.77 1642.06 1348.05 1592.07 1437.40 1547.46 C 1454.39 1538.66 1472.23 1531.67 1489.72 1523.95 C 1543.90 1500.59 1598.44 1478.07 1653.24 1456.19 C 1766.27 1408.41 1876.80 1354.07 1980.86 1288.84 C 2070.40 1232.83 2155.57 1169.15 2230.70 1094.74 C 2266.82 1058.96 2300.51 1020.70 2331.00 980.01 C 2400.26 888.04 2450.36 780.72 2470.59 667.06 C 2476.81 633.41 2479.24 599.18 2480.01 565.01 C 2481.18 503.69 2473.99 441.64 2453.17 383.71 Z" />
<path fill="#61bc26" opacity="1.00" d=" M 1125.53 629.82 C 1163.27 624.92 1202.99 634.54 1233.60 657.33 C 1259.06 675.79 1278.16 702.60 1287.62 732.55 C 1299.18 767.86 1296.76 807.42 1281.10 841.09 C 1266.92 871.36 1242.11 896.30 1212.42 911.51 C 1188.44 923.86 1160.98 929.67 1134.06 927.03 C 1100.13 925.28 1067.57 910.12 1043.00 886.89 C 1016.71 862.26 998.99 828.04 996.40 791.90 C 990.35 739.81 1016.22 686.70 1058.30 656.25 C 1077.92 641.76 1101.41 632.98 1125.53 629.82 Z" />
<path fill="#61bc26" opacity="1.00" d=" M 1989.50 713.84 C 2011.71 710.85 2034.68 712.92 2055.84 720.42 C 2084.04 730.44 2108.65 750.07 2124.73 775.31 C 2142.23 802.19 2149.86 835.27 2145.79 867.10 C 2141.38 902.14 2123.04 935.29 2095.45 957.39 C 2067.88 979.88 2031.25 990.35 1995.93 986.93 C 1965.54 984.21 1936.36 970.70 1914.38 949.58 C 1888.35 924.96 1872.52 889.85 1871.76 853.99 C 1870.62 821.16 1881.93 788.19 1902.81 762.86 C 1924.36 736.64 1955.76 718.36 1989.50 713.84 Z" />
<path fill="#61bc26" opacity="1.00" d=" M 1599.56 1072.75 C 1626.26 1068.37 1654.24 1090.75 1654.91 1117.99 C 1654.69 1127.78 1652.76 1137.96 1647.10 1146.15 C 1636.18 1162.25 1615.02 1170.58 1596.05 1166.30 C 1582.29 1162.83 1569.59 1153.28 1564.09 1139.96 C 1555.51 1120.03 1561.12 1093.95 1579.31 1081.27 C 1585.49 1077.33 1592.26 1073.95 1599.56 1072.75 Z" />
<path fill="#61bc26" opacity="1.00" d=" M 1191.54 1288.77 C 1211.23 1285.98 1231.28 1295.12 1244.12 1309.88 C 1254.84 1321.98 1260.85 1338.66 1258.30 1354.82 C 1256.75 1362.98 1254.86 1371.29 1250.43 1378.44 C 1235.76 1402.85 1202.40 1413.82 1176.10 1402.90 C 1168.88 1400.01 1162.80 1395.02 1157.03 1389.93 C 1145.15 1378.80 1139.54 1362.06 1140.41 1345.99 C 1141.25 1326.61 1151.17 1307.12 1168.16 1297.12 C 1175.43 1293.16 1183.32 1290.04 1191.54 1288.77 Z" />
</g>
<g id="#559d26ff">
<path fill="#559d26" opacity="1.00" d=" M 2913.59 1231.72 C 2978.55 1405.63 3025.79 1586.30 3052.20 1770.12 C 3066.67 1869.38 3073.82 1969.69 3073.97 2070.00 C 3074.03 2173.44 3066.23 2276.95 3049.50 2379.05 C 3035.81 2462.77 3015.79 2545.43 2990.58 2626.42 C 2958.24 2729.36 2915.21 2829.58 2855.92 2920.01 C 2818.51 2978.70 2774.90 3033.42 2726.19 3083.14 C 2679.45 3130.95 2627.89 3173.97 2573.01 3212.13 C 2508.13 3257.13 2438.29 3294.79 2365.69 3325.73 C 2287.41 3359.09 2205.93 3384.72 2123.02 3403.75 C 1996.68 3434.66 1866.79 3448.48 1737.03 3454.08 C 1711.37 3455.10 1685.71 3456.31 1660.02 3456.00 C 1533.88 3455.08 1407.55 3448.31 1282.61 3430.35 C 1278.67 3427.61 1274.76 3424.82 1271.00 3421.86 C 1292.29 3412.42 1313.84 3403.55 1335.16 3394.14 C 1409.43 3361.77 1483.03 3327.52 1553.57 3287.55 C 1964.55 3062.93 2313.38 2726.21 2552.64 2323.60 C 2629.66 2194.37 2695.52 2058.51 2748.96 1917.88 C 2810.27 1756.93 2855.54 1589.88 2884.00 1420.02 C 2891.34 1375.08 2898.21 1330.02 2902.57 1284.68 C 2904.77 1266.79 2907.07 1248.63 2913.59 1231.72 Z" />
<path fill="#559d26" opacity="1.00" d=" M 924.53 1348.77 C 958.43 1344.36 993.90 1363.03 1009.73 1393.28 C 1018.54 1410.59 1021.72 1430.99 1017.05 1449.99 C 1012.11 1471.26 998.95 1490.67 980.58 1502.59 C 968.48 1510.30 954.30 1514.79 940.01 1515.78 C 903.68 1517.85 866.75 1494.01 855.86 1458.89 C 843.79 1426.07 856.61 1387.04 883.81 1365.74 C 895.48 1356.49 909.89 1351.02 924.53 1348.77 Z" />
</g>
</svg>
